<?xml version="1.0" encoding="iso-8859-1"?>
<!-- Generator: Adobe Illustrator 18.0.0, SVG Export Plug-In . SVG Version: 6.00 Build 0)  -->
<!DOCTYPE svg PUBLIC "-//W3C//DTD SVG 1.1//EN" "http://www.w3.org/Graphics/SVG/1.1/DTD/svg11.dtd">
<svg version="1.1" id="Capa_1" xmlns="http://www.w3.org/2000/svg" xmlns:xlink="http://www.w3.org/1999/xlink" x="0px" y="0px"
	 viewBox="0 0 345.369 345.369" style="enable-background:new 0 0 345.369 345.369;" xml:space="preserve">
<g>
	<g>
		<g>
			<g>
				<path d="M199.654,105.629H49.965c-4.143,0-7.5-3.357-7.5-7.5s3.357-7.5,7.5-7.5h149.689c4.142,0,7.5,3.357,7.5,7.5
					S203.796,105.629,199.654,105.629z"/>
			</g>
			<g>
				<path d="M163.922,139.246H49.965c-4.143,0-7.5-3.357-7.5-7.5c0-4.143,3.357-7.5,7.5-7.5h113.957c4.142,0,7.5,3.357,7.5,7.5
					C171.422,135.889,168.063,139.246,163.922,139.246z"/>
			</g>
			<g>
				<path d="M87.682,240.096H49.965c-4.143,0-7.5-3.357-7.5-7.5c0-4.143,3.357-7.5,7.5-7.5h37.717c4.142,0,7.5,3.357,7.5,7.5
					C95.182,236.738,91.823,240.096,87.682,240.096z"/>
			</g>
			<g>
				<path d="M71.332,273.713H49.965c-4.143,0-7.5-3.357-7.5-7.5c0-4.143,3.357-7.5,7.5-7.5h21.367c4.142,0,7.5,3.357,7.5,7.5
					C78.832,270.355,75.474,273.713,71.332,273.713z"/>
			</g>
			<path d="M333.404,34.782l-17.108-12.757c-4.308-3.212-9.605-4.558-14.923-3.779c-5.316,0.775-10.012,3.573-13.223,7.88
				c-0.002,0.002-0.004,0.005-0.005,0.007l-42.411,57.48V26.529c0-4.143-3.357-7.5-7.5-7.5h-31.08V7.5c0-4.143-3.358-7.5-7.5-7.5
				c-4.143,0-7.5,3.357-7.5,7.5v11.529H169.73V7.5c0-4.143-3.357-7.5-7.5-7.5c-4.142,0-7.5,3.357-7.5,7.5v11.529h-22.422V7.5
				c0-4.143-3.357-7.5-7.5-7.5c-4.143,0-7.5,3.357-7.5,7.5v11.529H94.887V7.5c0-4.143-3.358-7.5-7.5-7.5c-4.143,0-7.5,3.357-7.5,7.5
				v11.529H57.465V7.5c0-4.143-3.358-7.5-7.5-7.5c-4.143,0-7.5,3.357-7.5,7.5v11.529H11.383c-4.142,0-7.5,3.357-7.5,7.5v311.34
				c0,4.143,3.358,7.5,7.5,7.5h226.852c4.143,0,7.5-3.357,7.5-7.5V188.138l91.767-125.204c0.001-0.002,0.003-0.003,0.005-0.005
				C344.134,54.038,342.295,41.412,333.404,34.782z M230.734,330.369H18.883V34.029h23.582v11.527c0,4.143,3.357,7.5,7.5,7.5
				c4.142,0,7.5-3.357,7.5-7.5V34.029h22.422v11.527c0,4.143,3.357,7.5,7.5,7.5c4.142,0,7.5-3.357,7.5-7.5V34.029h22.422v11.527
				c0,4.143,3.357,7.5,7.5,7.5c4.143,0,7.5-3.357,7.5-7.5V34.029h22.422v11.527c0,4.143,3.358,7.5,7.5,7.5
				c4.143,0,7.5-3.357,7.5-7.5V34.029h22.424v11.527c0,4.143,3.357,7.5,7.5,7.5c4.142,0,7.5-3.357,7.5-7.5V34.029h23.58v70.166
				l-39.113,53.668H49.965c-4.143,0-7.5,3.357-7.5,7.5c0,4.143,3.357,7.5,7.5,7.5h130.725c0,0-42.642,58.513-42.65,58.525
				c0,0,0.002,0,0.004,0c-0.484,0.673-0.87,1.432-1.115,2.272l-17.15,58.669H49.965c-4.143,0-7.5,3.357-7.5,7.5
				c0,4.143,3.357,7.5,7.5,7.5c0,0,75.515-0.006,75.555-0.006c0-0.001-0.001-0.002-0.002-0.002c1.373-0.022,2.744-0.413,3.951-1.193
				l56.059-36.229c0.771-0.498,1.412-1.119,1.932-1.813c0.018-0.024,43.275-59.367,43.275-59.367V330.369z M148.296,248.23
				l20.024,14.932l-30.069,19.432L148.296,248.23z M179.861,253.057l-25.305-18.869L272.844,71.883l25.305,18.869L179.861,253.057z
				 M307.05,78.678l-25.306-18.869l8.076-10.83l25.305,18.871L307.05,78.678z M325.48,53.962c-0.002,0.002-0.004,0.005-0.005,0.007
				l-1.384,1.855l-25.305-18.871l1.383-1.854c0.002-0.002,0.004-0.004,0.006-0.006c0.816-1.095,2.01-1.807,3.361-2.004
				c1.353-0.196,2.697,0.146,3.791,0.961l17.109,12.757C326.697,48.492,327.165,51.702,325.48,53.962z"/>
		</g>
	</g>
</g>
<g>
</g>
<g>
</g>
<g>
</g>
<g>
</g>
<g>
</g>
<g>
</g>
<g>
</g>
<g>
</g>
<g>
</g>
<g>
</g>
<g>
</g>
<g>
</g>
<g>
</g>
<g>
</g>
<g>
</g>
</svg>
