<?xml version="1.0" encoding="iso-8859-1"?>
<!-- Generator: Adobe Illustrator 19.0.0, SVG Export Plug-In . SVG Version: 6.00 Build 0)  -->
<svg version="1.1" id="Layer_1" xmlns="http://www.w3.org/2000/svg" xmlns:xlink="http://www.w3.org/1999/xlink" x="0px" y="0px"
	 viewBox="0 0 512 512" style="enable-background:new 0 0 512 512;" xml:space="preserve">
<g>
	<g>
		<path d="M495.807,66.962L444.696,15.85c-21.136-21.134-55.53-21.134-76.666,0.001l-29.815,29.815L31.926,351.956L0.341,512
			l159.396-32.304l336.069-336.069C516.943,122.49,516.943,88.099,495.807,66.962z M338.215,96.776l25.557,25.556l-264.07,264.07
			l-25.557-25.555L338.215,96.776z M46.294,465.811l13.468-68.239l54.471,54.471L46.294,465.811z M150.812,437.512l-25.555-25.555
			l264.07-264.07l25.555,25.555L150.812,437.512z M470.252,118.072l-29.815,29.815L363.77,71.221l29.813-29.814
			c7.05-7.047,18.514-7.045,25.559-0.001l51.11,51.111C477.296,99.562,477.296,111.027,470.252,118.072z"/>
	</g>
</g>
<g>
</g>
<g>
</g>
<g>
</g>
<g>
</g>
<g>
</g>
<g>
</g>
<g>
</g>
<g>
</g>
<g>
</g>
<g>
</g>
<g>
</g>
<g>
</g>
<g>
</g>
<g>
</g>
<g>
</g>
</svg>
