<svg height="512" viewBox="0 0 192 192" width="512" xmlns="http://www.w3.org/2000/svg"><g id="_08-wand" data-name="08-wand"><g id="Glyph"><path d="m185.3 62.215-13.5-18.088 7.248-21.374a8 8 0 0 0 -10.148-10.145l-21.37 7.248-18.087-13.5a8 8 0 0 0 -12.784 6.514l.288 22.568-18.427 13.033a8 8 0 0 0 2.244 14.171l13.182 4.1-111.6 111.6 11.314 11.314 111.42-111.422 3.936 12.66a8 8 0 0 0 6.384 5.526 7.912 7.912 0 0 0 1.252.1 8 8 0 0 0 6.531-3.381l13.032-18.427 22.571.288h.1a8 8 0 0 0 6.41-12.785z"/><path d="m162.478 128.478a14.245 14.245 0 0 1 -14.13-14.326 2 2 0 1 0 -4 0 14.245 14.245 0 0 1 -14.131 14.326 2 2 0 0 0 0 4 14.246 14.246 0 0 1 14.131 14.322 2 2 0 1 0 4 0 14.246 14.246 0 0 1 14.13-14.326 2 2 0 0 0 0-4z"/><path d="m64.217 20.478a14.246 14.246 0 0 1 14.131 14.322 2 2 0 0 0 4 0 14.246 14.246 0 0 1 14.13-14.326 2 2 0 0 0 0-4 14.245 14.245 0 0 1 -14.13-14.322 2 2 0 0 0 -4 0 14.245 14.245 0 0 1 -14.131 14.326 2 2 0 0 0 0 4z"/><path d="m14.217 87.478a14.246 14.246 0 0 1 14.131 14.322 2 2 0 0 0 4 0 14.246 14.246 0 0 1 14.13-14.326 2 2 0 0 0 0-4 14.245 14.245 0 0 1 -14.13-14.326 2 2 0 0 0 -4 0 14.245 14.245 0 0 1 -14.131 14.33 2 2 0 1 0 0 4z"/></g></g></svg>