<?xml version="1.0" encoding="iso-8859-1"?>
<!-- Generator: Adobe Illustrator 19.0.0, SVG Export Plug-In . SVG Version: 6.00 Build 0)  -->
<svg version="1.1" id="Layer_1" xmlns="http://www.w3.org/2000/svg" xmlns:xlink="http://www.w3.org/1999/xlink" x="0px" y="0px"
	 viewBox="0 0 392.533 392.533" style="enable-background:new 0 0 392.533 392.533;" xml:space="preserve">
<path style="fill:#56ACE0;" d="M359.822,21.786h-29.673v103.305c0,6.012-4.848,10.925-10.925,10.925h-236.8
	c-6.012,0-10.925-4.848-10.925-10.925V21.786H53.527L21.786,53.527v306.23c0,6.012,4.848,10.925,10.925,10.925h38.853V213.657
	c0-6.012,4.848-10.925,10.925-10.925h236.865c6.012,0,10.925,4.848,10.925,10.925v157.091h29.543
	c6.012,0,10.925-4.848,10.925-10.925V32.711C370.747,26.699,365.834,21.786,359.822,21.786z"/>
<rect x="93.349" y="21.786" style="fill:#FFFFFF;" width="215.079" height="92.444"/>
<path style="fill:#FFC10D;" d="M93.349,224.582v146.23h215.079v-146.23H93.349z M260.008,334.998H141.64
	c-6.012,0-10.861-4.848-10.861-10.925c0-6.012,4.848-10.925,10.861-10.925h118.368c6.012,0,10.925,4.848,10.925,10.925
	C270.933,330.085,266.02,334.998,260.008,334.998z M260.008,282.117H141.64c-6.012,0-10.861-4.913-10.861-10.861
	c0-6.012,4.848-10.925,10.861-10.925h118.368c6.012,0,10.925,4.848,10.925,10.925C270.933,277.269,266.02,282.117,260.008,282.117z"
	/>
<g>
	<path style="fill:#194F82;" d="M359.822,0H49.067c-2.844,0-5.624,1.164-7.758,3.168L3.168,41.309C1.164,43.378,0,46.158,0,49.067
		v310.756c0,18.036,14.675,32.711,32.711,32.711h327.111c18.036,0,32.711-14.675,32.711-32.711V32.711
		C392.533,14.675,377.859,0,359.822,0z M93.349,21.786h215.079v92.444H93.349V21.786z M93.349,370.747v-146.23h215.079v146.23
		H93.349z M370.747,359.822c0,6.012-4.848,10.925-10.925,10.925h-29.673V213.657c0-6.012-4.848-10.925-10.925-10.925h-236.8
		c-6.012,0-10.925,4.848-10.925,10.925v157.091H32.711c-6.012,0-10.925-4.848-10.925-10.925V53.527l31.741-31.741h18.036v103.305
		c0,6.012,4.848,10.925,10.925,10.925h236.865c6.012,0,10.925-4.848,10.925-10.925V21.786h29.543
		c6.012,0,10.925,4.848,10.925,10.925V359.822z"/>
	<path style="fill:#194F82;" d="M270.158,31.418c-6.012,0-10.925,4.848-10.925,10.925v35.62c0,6.012,4.848,10.925,10.925,10.925
		c6.012,0,10.925-4.848,10.925-10.925v-35.62C281.018,36.331,276.17,31.418,270.158,31.418z"/>
	<path style="fill:#194F82;" d="M260.008,260.331H141.64c-6.012,0-10.925,4.848-10.925,10.925c0,5.947,4.848,10.925,10.925,10.925
		h118.368c6.012,0,10.925-4.848,10.925-10.925C270.933,265.18,266.02,260.331,260.008,260.331z"/>
	<path style="fill:#194F82;" d="M260.008,313.212H141.64c-6.012,0-10.925,4.848-10.925,10.925c0,6.012,4.848,10.925,10.925,10.925
		h118.368c6.012,0,10.925-4.849,10.925-10.925S266.02,313.212,260.008,313.212z"/>
</g>
<g>
</g>
<g>
</g>
<g>
</g>
<g>
</g>
<g>
</g>
<g>
</g>
<g>
</g>
<g>
</g>
<g>
</g>
<g>
</g>
<g>
</g>
<g>
</g>
<g>
</g>
<g>
</g>
<g>
</g>
</svg>
