<?xml version="1.0" encoding="iso-8859-1"?>
<!-- Generator: Adobe Illustrator 19.0.0, SVG Export Plug-In . SVG Version: 6.00 Build 0)  -->
<svg version="1.1" id="Layer_1" xmlns="http://www.w3.org/2000/svg" xmlns:xlink="http://www.w3.org/1999/xlink" x="0px" y="0px"
	 viewBox="0 0 208 208" style="enable-background:new 0 0 208 208;" xml:space="preserve">
<g>
	<g>
		<g>
			<path d="M84,170V94h42.989c0.015,0.788,0.07,1.558,0.07,2.352c0,2.211,1.789,4,4,4s4-1.789,4-4c0-0.794-0.06-1.563-0.074-2.352
				H160h5.648H168c0-46.316-37.684-84-84-84h-8v0.405C33.424,14.45,0,50.384,0,94c0,46.316,37.684,84,84,84c2.211,0,4-1.789,4-4
				S86.211,170,84,170z M159.57,86h-24.968c-2.388-29.981-14.96-54.891-31.999-65.601C133.02,28.095,156.216,54.098,159.57,86z
				 M84,22.707c21.683,0,39.625,27.581,42.582,63.293H84V22.707z M65.398,20.399c-17.04,10.71-29.611,35.62-32,65.601H8.43
				C11.784,54.098,34.98,28.095,65.398,20.399z M8,94h25.016c-0.014,0.788-0.074,1.558-0.074,2.352
				c0,28.533,9.217,53.657,23.123,68.26C27.955,153.45,8,126.037,8,94z M76,168.676c-19.929-6.438-35.058-36.394-35.058-72.324
				c0-0.794,0.055-1.564,0.07-2.352H76V168.676z M76,86H41.418C44.002,54.794,58.025,29.838,76,24.031V86z"/>
			<path d="M204,106H100c-2.211,0-4,1.789-4,4v84c0,2.211,1.789,4,4,4h104c2.211,0,4-1.789,4-4v-84C208,107.789,206.211,106,204,106
				z M200,190h-96v-76h96V190z"/>
			<path d="M133.98,173.453c0.625,0.363,1.32,0.547,2.02,0.547c0.676,0,1.352-0.172,1.961-0.516l32-18
				c1.258-0.707,2.039-2.039,2.039-3.484s-0.781-2.777-2.039-3.484l-32-18c-1.238-0.699-2.75-0.684-3.98,0.031
				c-1.226,0.719-1.98,2.031-1.98,3.453v36C132,171.422,132.754,172.734,133.98,173.453z M140,140.84L159.84,152L140,163.16V140.84z
				"/>
		</g>
	</g>
</g>
<g>
</g>
<g>
</g>
<g>
</g>
<g>
</g>
<g>
</g>
<g>
</g>
<g>
</g>
<g>
</g>
<g>
</g>
<g>
</g>
<g>
</g>
<g>
</g>
<g>
</g>
<g>
</g>
<g>
</g>
</svg>
